ffmpeg started on 2016-11-23 at 06:12:35
Report written to "Output/NVENCh264/results/ffmpeg/crowd_run_2160p50medium9000k.log"
Command line:
Tools/ffmpeg/ffmpeg -benchmark -y -i Input/y4m/crowd_run_2160p50.y4m -c:v h264_nvenc -preset medium -b:v 9000k -an Output/NVENCh264/encoded/crowd_run_2160p50medium9000k.mkv
ffmpeg version N-82227-gdb23fde Copyright (c) 2000-2016 the FFmpeg developers
  built with gcc 5.4.0 (Ubuntu 5.4.0-6ubuntu1~16.04.2) 20160609
  configuration: --prefix=/home/jaroslav/ffmpeg_build --pkg-config-flags=--static --extra-cflags=-I/home/jaroslav/ffmpeg_build/include --extra-ldflags=-L/home/jaroslav/ffmpeg_build/lib --bindir=/home/jaroslav/bin --enable-gpl --enable-libass --enable-libfdk-aac --enable-libfreetype --enable-libmp3lame --enable-libopus --enable-libtheora --enable-libvorbis --enable-libvpx --enable-libx264 --enable-libx265 --enable-nvenc --enable-libmfx --enable-libxvid --enable-libgsm --enable-libopencore-amrnb --enable-version3 --enable-nonfree
  libavutil      55. 35.100 / 55. 35.100
  libavcodec     57. 66.101 / 57. 66.101
  libavformat    57. 57.100 / 57. 57.100
  libavdevice    57.  2.100 / 57.  2.100
  libavfilter     6. 66.100 /  6. 66.100
  libswscale      4.  3.100 /  4.  3.100
  libswresample   2.  4.100 /  2.  4.100
  libpostproc    54.  2.100 / 54.  2.100
Input #0, yuv4mpegpipe, from 'Input/y4m/crowd_run_2160p50.y4m':
  Duration: 00:00:10.00, start: 0.000000, bitrate: 4976642 kb/s
    Stream #0:0: Video: rawvideo (I420 / 0x30323449), yuv420p(progressive), 3840x2160, SAR 1:1 DAR 16:9, 50 fps, 50 tbr, 50 tbn, 50 tbc
Output #0, matroska, to 'Output/NVENCh264/encoded/crowd_run_2160p50medium9000k.mkv':
  Metadata:
    encoder         : Lavf57.57.100
    Stream #0:0: Video: h264 (h264_nvenc) (Main) (H264 / 0x34363248), yuv420p, 3840x2160 [SAR 1:1 DAR 16:9], q=-1--1, 9000 kb/s, 50 fps, 1k tbn, 50 tbc
    Metadata:
      encoder         : Lavc57.66.101 h264_nvenc
    Side data:
      cpb: bitrate max/min/avg: 0/0/9000000 buffer size: 18000000 vbv_delay: -1
Stream mapping:
  Stream #0:0 -> #0:0 (rawvideo (native) -> h264 (h264_nvenc))
Press [q] to stop, [?] for help
frame=   15 fps=0.0 q=0.0 size=       0kB time=00:00:00.00 bitrate=N/A speed=   0x    frame=   33 fps= 32 q=45.0 size=       1kB time=00:00:00.04 bitrate= 143.0kbits/s speed=0.04x    frame=   51 fps= 33 q=44.0 size=       1kB time=00:00:00.40 bitrate=  14.6kbits/s speed=0.26x    frame=   69 fps= 33 q=44.0 size=       1kB time=00:00:00.76 bitrate=   7.7kbits/s speed=0.369x    frame=   87 fps= 34 q=44.0 size=       1kB time=00:00:01.12 bitrate=   5.2kbits/s speed=0.434x    frame=  104 fps= 34 q=44.0 size=       1kB time=00:00:01.46 bitrate=   4.0kbits/s speed=0.473x    frame=  122 fps= 34 q=44.0 size=       1kB time=00:00:01.82 bitrate=   3.2kbits/s speed=0.505x    frame=  140 fps= 34 q=44.0 size=       1kB time=00:00:02.18 bitrate=   2.7kbits/s speed=0.529x    frame=  157 fps= 34 q=44.0 size=       1kB time=00:00:02.52 bitrate=   2.3kbits/s speed=0.545x    frame=  166 fps= 19 q=44.0 size=       1kB time=00:00:02.70 bitrate=   2.2kbits/s speed=0.309x    frame=  178 fps= 19 q=44.0 size=       1kB time=00:00:02.94 bitrate=   2.0kbits/s speed=0.318x    frame=  195 fps= 20 q=44.0 size=       1kB time=00:00:03.28 bitrate=   1.8kbits/s speed=0.336x    frame=  212 fps= 21 q=44.0 size=       1kB time=00:00:03.62 bitrate=   1.6kbits/s speed=0.352x    frame=  230 fps= 21 q=44.0 size=       1kB time=00:00:03.98 bitrate=   1.5kbits/s speed=0.368x    frame=  248 fps= 22 q=44.0 size=       1kB time=00:00:04.34 bitrate=   1.4kbits/s speed=0.383x    frame=  266 fps= 22 q=44.0 size=       1kB time=00:00:04.70 bitrate=   1.2kbits/s speed=0.397x    frame=  283 fps= 23 q=44.0 size=    5329kB time=00:00:05.04 bitrate=8660.5kbits/s speed=0.408x    frame=  301 fps= 23 q=44.0 size=    5329kB time=00:00:05.40 bitrate=8083.3kbits/s speed=0.419x    frame=  319 fps= 24 q=44.0 size=    5329kB time=00:00:05.76 bitrate=7578.2kbits/s speed=0.43x    frame=  337 fps= 24 q=44.0 size=    5329kB time=00:00:06.12 bitrate=7132.5kbits/s speed=0.44x    frame=  355 fps= 25 q=44.0 size=    5329kB time=00:00:06.48 bitrate=6736.3kbits/s speed=0.449x    frame=  373 fps= 25 q=44.0 size=    5329kB time=00:00:06.84 bitrate=6381.8kbits/s speed=0.457x    frame=  391 fps= 25 q=44.0 size=    5329kB time=00:00:07.20 bitrate=6062.7kbits/s speed=0.465x    frame=  409 fps= 26 q=44.0 size=    5329kB time=00:00:07.56 bitrate=5774.1kbits/s speed=0.473x    frame=  427 fps= 26 q=44.0 size=    5329kB time=00:00:07.92 bitrate=5511.7kbits/s speed=0.48x    frame=  445 fps= 26 q=44.0 size=    5329kB time=00:00:08.28 bitrate=5272.0kbits/s speed=0.487x    frame=  463 fps= 26 q=44.0 size=    5329kB time=00:00:08.64 bitrate=5052.4kbits/s speed=0.493x    frame=  481 fps= 27 q=44.0 size=    5329kB time=00:00:09.00 bitrate=4850.3kbits/s speed=0.499x    frame=  499 fps= 27 q=44.0 size=    5329kB time=00:00:09.36 bitrate=4663.8kbits/s speed=0.505x    frame=  500 fps= 27 q=44.0 Lsize=   10713kB time=00:00:09.98 bitrate=8793.2kbits/s speed=0.536x    
video:10709kB audio:0kB subtitle:0kB other streams:0kB global headers:0kB muxing overhead: 0.044284%
bench: utime=1.120s
bench: maxrss=980212kB
